<svg width="24" height="24" viewBox="0 0 24 24" fill="none" xmlns="http://www.w3.org/2000/svg">
<circle cx="12" cy="12" r="9" stroke="#A4A4AB" stroke-width="2"/>
<path d="M8.75926 14.3492C8.39983 13.9299 7.76853 13.8813 7.34921 14.2407C6.92988 14.6002 6.88132 15.2315 7.24074 15.6508L8.75926 14.3492ZM16.7593 15.6508C17.1187 15.2315 17.0701 14.6002 16.6508 14.2407C16.2315 13.8813 15.6002 13.9299 15.2407 14.3492L16.7593 15.6508ZM8 15C7.24074 15.6508 7.24096 15.651 7.24118 15.6513C7.24127 15.6514 7.2415 15.6517 7.24166 15.6519C7.242 15.6522 7.24236 15.6527 7.24274 15.6531C7.24352 15.654 7.2444 15.655 7.24539 15.6562C7.24737 15.6585 7.24979 15.6612 7.25263 15.6645C7.2583 15.671 7.26569 15.6793 7.27475 15.6895C7.29288 15.7097 7.31773 15.737 7.34905 15.7704C7.41162 15.837 7.50038 15.9283 7.6131 16.0359C7.83758 16.2501 8.16229 16.5343 8.56939 16.8192C9.36897 17.3789 10.5699 18 12 18V16C11.1443 16 10.3453 15.6211 9.71632 15.1808C9.40914 14.9657 9.16242 14.7499 8.99405 14.5891C8.91034 14.5092 8.84731 14.4442 8.8072 14.4015C8.78718 14.3802 8.77297 14.3645 8.76487 14.3555C8.76082 14.3509 8.7583 14.3481 8.75735 14.347C8.75688 14.3464 8.75679 14.3463 8.75711 14.3467C8.75727 14.3469 8.75753 14.3472 8.75788 14.3476C8.75806 14.3478 8.75827 14.3481 8.75849 14.3483C8.75861 14.3485 8.7588 14.3487 8.75886 14.3487C8.75905 14.349 8.75926 14.3492 8 15ZM12 18C13.4301 18 14.631 17.3789 15.4306 16.8192C15.8377 16.5343 16.1624 16.2501 16.3869 16.0359C16.4996 15.9283 16.5884 15.837 16.6509 15.7704C16.6823 15.737 16.7071 15.7097 16.7252 15.6895C16.7343 15.6793 16.7417 15.671 16.7474 15.6645C16.7502 15.6612 16.7526 15.6585 16.7546 15.6562C16.7556 15.655 16.7565 15.654 16.7573 15.6531C16.7576 15.6527 16.758 15.6522 16.7583 15.6519C16.7585 15.6517 16.7587 15.6514 16.7588 15.6513C16.759 15.651 16.7593 15.6508 16 15C15.2407 14.3492 15.2409 14.349 15.2411 14.3487C15.2412 14.3487 15.2414 14.3485 15.2415 14.3483C15.2417 14.3481 15.2419 14.3478 15.2421 14.3476C15.2425 14.3472 15.2427 14.3469 15.2429 14.3467C15.2432 14.3463 15.2431 14.3464 15.2427 14.347C15.2417 14.3481 15.2392 14.3509 15.2351 14.3555C15.227 14.3645 15.2128 14.3802 15.1928 14.4015C15.1527 14.4442 15.0897 14.5092 15.006 14.5891C14.8376 14.7499 14.5909 14.9657 14.2837 15.1808C13.6547 15.6211 12.8557 16 12 16V18Z" fill="#A4A4AB"/>
</svg>
