<svg width="24" height="24" viewBox="0 0 24 24" fill="none" xmlns="http://www.w3.org/2000/svg">
<path d="M11.9995 14.25C12.6208 14.25 13.1245 13.7463 13.1245 13.125C13.1245 12.5037 12.6208 12 11.9995 12C11.3782 12 10.8745 12.5037 10.8745 13.125C10.8745 13.7463 11.3782 14.25 11.9995 14.25Z" fill="#1C2C40"/>
<path d="M19.4995 7.5H16.1245V4.875C16.1245 3.78098 15.6899 2.73177 14.9163 1.95818C14.1427 1.1846 13.0935 0.75 11.9995 0.75C10.9055 0.75 9.85628 1.1846 9.0827 1.95818C8.30911 2.73177 7.87451 3.78098 7.87451 4.875V7.5H4.49951C4.10183 7.50045 3.72056 7.65864 3.43935 7.93984C3.15815 8.22105 2.99997 8.60231 2.99951 9V19.5C2.99997 19.8977 3.15815 20.279 3.43935 20.5602C3.72056 20.8414 4.10183 20.9995 4.49951 21H19.4995C19.8972 20.9995 20.2785 20.8414 20.5597 20.5602C20.8409 20.279 20.9991 19.8977 20.9995 19.5V9C20.9991 8.60231 20.8409 8.22105 20.5597 7.93984C20.2785 7.65864 19.8972 7.50045 19.4995 7.5V7.5ZM12.7495 15.6403V17.25C12.7495 17.4489 12.6705 17.6397 12.5298 17.7803C12.3892 17.921 12.1984 18 11.9995 18C11.8006 18 11.6098 17.921 11.4692 17.7803C11.3285 17.6397 11.2495 17.4489 11.2495 17.25V15.6403C10.6453 15.4601 10.126 15.0685 9.78681 14.537C9.44757 14.0055 9.31098 13.3696 9.40201 12.7457C9.49304 12.1218 9.80561 11.5515 10.2826 11.139C10.7595 10.7266 11.369 10.4997 11.9995 10.4997C12.63 10.4997 13.2395 10.7266 13.7165 11.139C14.1934 11.5515 14.506 12.1218 14.597 12.7457C14.688 13.3696 14.5514 14.0055 14.2122 14.537C13.873 15.0685 13.3538 15.4601 12.7495 15.6403ZM14.6245 7.5H9.37451V4.875C9.37451 4.17881 9.65107 3.51113 10.1434 3.01884C10.6356 2.52656 11.3033 2.25 11.9995 2.25C12.6957 2.25 13.3634 2.52656 13.8557 3.01884C14.348 3.51113 14.6245 4.17881 14.6245 4.875V7.5Z" fill="#1C2C40"/>
</svg>
