<svg width="16" height="14" viewBox="0 0 16 14" fill="none" xmlns="http://www.w3.org/2000/svg">
<path d="M0 6C0 2.68629 2.68629 0 6 0H10C13.3137 0 16 2.68629 16 6V8C16 11.3137 13.3137 14 10 14H6C2.68629 14 0 11.3137 0 8V6Z" fill="#D88C09"/>
<path fill-rule="evenodd" clip-rule="evenodd" d="M5.33325 7.00001C5.33325 6.81591 5.48249 6.66667 5.66659 6.66667H10.3333C10.5173 6.66667 10.6666 6.81591 10.6666 7.00001C10.6666 7.1841 10.5173 7.33334 10.3333 7.33334H5.66659C5.48249 7.33334 5.33325 7.1841 5.33325 7.00001Z" fill="white"/>
<path fill-rule="evenodd" clip-rule="evenodd" d="M10.569 6.7643C10.6992 6.89448 10.6992 7.10553 10.569 7.23571L8.56904 9.23571C8.43886 9.36588 8.22781 9.36588 8.09763 9.23571C7.96746 9.10553 7.96746 8.89448 8.09763 8.7643L10.0976 6.7643C10.2278 6.63413 10.4389 6.63413 10.569 6.7643Z" fill="white"/>
<path fill-rule="evenodd" clip-rule="evenodd" d="M8.09763 4.7643C8.22781 4.63413 8.43886 4.63413 8.56904 4.7643L10.569 6.7643C10.6992 6.89448 10.6992 7.10553 10.569 7.23571C10.4389 7.36588 10.2278 7.36588 10.0976 7.23571L8.09763 5.23571C7.96746 5.10553 7.96746 4.89448 8.09763 4.7643Z" fill="white"/>
</svg>
