<svg width="16" height="16" viewBox="0 0 16 16" fill="none" xmlns="http://www.w3.org/2000/svg">
<path d="M13.4619 5.80865C13.4241 5.71729 13.36 5.6392 13.2778 5.58426C13.1955 5.52932 13.0989 5.5 13 5.5H2.99997C2.90108 5.5 2.80441 5.52932 2.72218 5.58427C2.63996 5.63921 2.57587 5.7173 2.53803 5.80866C2.50018 5.90003 2.49028 6.00056 2.50958 6.09755C2.52887 6.19455 2.5765 6.28364 2.64643 6.35356L7.64643 11.3535C7.69285 11.4 7.74797 11.4368 7.80863 11.4619C7.86929 11.4871 7.93431 11.5 7.99997 11.5C8.06563 11.5 8.13065 11.4871 8.19131 11.4619C8.25197 11.4368 8.30709 11.4 8.35352 11.3535L13.3535 6.35356C13.4234 6.28364 13.4711 6.19454 13.4904 6.09755C13.5097 6.00056 13.4998 5.90002 13.4619 5.80865Z" fill="#1C2C40"/>
</svg>
