<svg width="24" height="24" viewBox="0 0 24 24" fill="none" xmlns="http://www.w3.org/2000/svg">
<path d="M20.5091 9.72189L13.0084 2.9029C12.7329 2.65063 12.3729 2.51072 11.9994 2.51074C11.6258 2.51077 11.2658 2.65073 10.9903 2.90304L3.49098 9.72184C3.33647 9.86254 3.213 10.0339 3.12846 10.225C3.04392 10.4161 3.00016 10.6228 2.99998 10.8317V19.4657C2.99568 19.8426 3.12941 20.2081 3.37598 20.4933C3.51645 20.653 3.68942 20.7808 3.8833 20.8682C4.07719 20.9555 4.28751 21.0004 4.50017 20.9999H8.99668C9.19559 20.9999 9.38636 20.9209 9.52701 20.7802C9.66766 20.6396 9.74668 20.4488 9.74668 20.2499V15.7492C9.74668 15.5503 9.8257 15.3595 9.96635 15.2189C10.107 15.0782 10.2978 14.9992 10.4967 14.9992H13.4967C13.6956 14.9992 13.8864 15.0782 14.027 15.2189C14.1677 15.3595 14.2467 15.5503 14.2467 15.7492V20.2499C14.2467 20.4488 14.3257 20.6396 14.4664 20.7802C14.607 20.9209 14.7978 20.9999 14.9967 20.9999H19.5021C19.7485 21.0031 19.9916 20.9432 20.2084 20.8259C20.4476 20.6968 20.6475 20.5054 20.7868 20.2719C20.9262 20.0385 20.9998 19.7718 21 19.4999V10.8318C20.9998 10.6228 20.956 10.4162 20.8715 10.2251C20.787 10.034 20.6635 9.86261 20.5091 9.72189V9.72189Z" fill="#009639"/>
</svg>
