<svg width="23" height="17" viewBox="0 0 23 17" fill="none" xmlns="http://www.w3.org/2000/svg">
<path fill-rule="evenodd" clip-rule="evenodd" d="M3.55402 4.11961C3.5391 4.13326 3.50981 4.16158 3.4775 4.19341C3.45408 4.21648 3.43536 4.23513 3.39661 4.27387L1.25272 6.41777C1.19657 6.47657 1.15758 6.51605 1.06698 6.60666C1.01642 6.65721 0.979303 6.69604 0.899436 6.7809C0.750932 6.92462 0.594341 7.09618 0.447601 7.2773C0.30924 7.42367 0.198691 7.59414 0.121483 7.78039C-0.037475 8.26467 -0.037475 8.73538 0.10412 9.17255L0.123086 9.2235C0.200919 9.4078 0.310809 9.57675 0.447576 9.72254C0.594445 9.90233 0.751021 10.074 0.916606 10.2367C0.979303 10.304 1.01642 10.3428 1.06698 10.3934L1.25272 10.5791L3.20737 12.5369C3.29877 12.6283 3.34366 12.6727 3.39566 12.7224C3.45108 12.7808 3.50928 12.8387 3.56771 12.8937C3.57816 12.903 6.0694 15.3927 6.0694 15.3927C6.14634 15.4696 6.20841 15.5301 6.34802 15.6649C6.36284 15.6794 6.38533 15.7022 6.39224 15.7095C6.42818 15.7473 6.44902 15.7691 6.46292 15.783C6.75344 16.0739 7.08744 16.3184 7.45285 16.5077C7.82724 16.694 8.21682 16.8222 8.61867 16.8929C8.9983 16.955 9.37434 16.9883 9.75129 16.9937C9.81616 16.995 9.87003 16.9957 9.99018 16.9969C10.1061 16.998 10.1572 16.9987 10.22 16.9999L17.6434 17.0001C17.7199 16.9987 17.7716 16.998 17.8888 16.9969C18.0101 16.9957 18.0646 16.995 18.1342 16.9936C18.5127 16.9869 18.8914 16.9526 19.2661 16.891C19.6769 16.8215 20.072 16.691 20.4408 16.5036C20.8124 16.3148 21.1517 16.068 21.4457 15.7724C21.7381 15.4788 21.9837 15.1414 22.1732 14.7724C22.3604 14.3978 22.489 14.0045 22.5581 13.5988C22.621 13.2196 22.6543 12.8391 22.6583 12.4576C22.6617 12.3791 22.6631 12.3041 22.6653 12.1381C22.6663 12.0592 22.6669 12.0244 22.6677 11.9816L22.6678 4.98983C22.6668 4.93535 22.6663 4.90076 22.6653 4.82329L22.6642 4.74279C22.6627 4.6413 22.6609 4.56514 22.6579 4.48929C22.6537 4.13026 22.6217 3.75456 22.5624 3.3827C22.49 2.97091 22.3618 2.58133 22.18 2.21602C21.989 1.84294 21.7451 1.50806 21.4539 1.21693C21.1636 0.924426 20.8265 0.678572 20.4571 0.490419C20.09 0.306534 19.7022 0.178108 19.302 0.107241C18.9183 0.0461237 18.5416 0.0140679 18.1641 0.00949075C18.0393 0.00425353 17.9288 0.00314816 17.6843 0.00314816C17.6041 0.00172515 17.5105 0.00084163 17.4052 0.000399077C17.3259 6.60179e-05 17.2629 0 17.1208 0H10.7961C10.5124 0 10.384 0.000537436 10.2221 0.00323559C9.98809 0.00314816 9.87755 0.00425353 9.7352 0.00994758C9.37632 0.0137774 9.00027 0.0458789 8.62812 0.105528C8.21682 0.177816 7.82724 0.306016 7.46193 0.48777C7.08744 0.681619 6.75344 0.926132 6.46265 1.21728C6.44902 1.23091 6.42818 1.25276 6.39366 1.2891C6.38533 1.29782 6.34802 1.3352 6.34802 1.3352C6.20841 1.46999 6.14634 1.53044 6.0694 1.60738L5.74829 1.92849L3.6126 4.06728C3.59388 4.08222 3.57386 4.09977 3.55402 4.11961ZM17.1208 1.25926C17.2612 1.25926 17.323 1.25933 17.3999 1.25965C17.5003 1.26007 17.5889 1.26091 17.6738 1.26232C17.912 1.26241 18.0113 1.2634 18.1313 1.2682C18.4652 1.2725 18.7809 1.29936 19.0934 1.34904C19.3629 1.39688 19.6347 1.48689 19.8893 1.61445C20.1358 1.73996 20.364 1.90644 20.5618 2.10573C20.762 2.30581 20.9281 2.5339 21.0559 2.78353C21.1805 3.03403 21.2707 3.30817 21.3205 3.59096C21.3685 3.89235 21.3953 4.20688 21.3992 4.52212C21.4021 4.60294 21.4037 4.66964 21.4051 4.76149L21.4062 4.83993C21.4072 4.92024 21.4078 4.95674 21.4087 5.00242L21.4085 11.9693C21.4078 12.0034 21.4072 12.04 21.4062 12.1216C21.4041 12.2767 21.4028 12.3444 21.3996 12.4263C21.3958 12.7612 21.3681 13.0774 21.3163 13.3901C21.2684 13.6709 21.1785 13.9459 21.0499 14.2033C20.9229 14.4504 20.7543 14.6822 20.5532 14.884C20.3532 15.0851 20.1229 15.2527 19.8705 15.3809C19.6149 15.5108 19.3413 15.6011 19.0589 15.6489C18.7472 15.7001 18.4294 15.729 18.1107 15.7346C18.0453 15.7359 17.9936 15.7365 17.8764 15.7377C17.7551 15.7389 17.7006 15.7395 17.631 15.7409L10.2326 15.7408C10.1768 15.7395 10.1229 15.7389 10.0028 15.7377C9.88682 15.7365 9.83575 15.7359 9.77296 15.7346C9.45444 15.73 9.14021 15.7022 8.8293 15.6514C8.55408 15.603 8.27993 15.5128 8.02286 15.3849C7.78163 15.2598 7.55283 15.0923 7.35362 14.8929L7.30445 14.8414C7.25559 14.7902 7.23444 14.7684 7.21012 14.7468C7.08468 14.6257 7.02758 14.57 6.95983 14.5022L4.46334 12.0057C4.44054 11.985 4.42675 11.9725 4.41723 11.964C4.37211 11.9206 4.33521 11.8834 4.30033 11.8463C4.22825 11.7765 4.18876 11.7375 4.09816 11.6469L2.14351 9.68906L1.95741 9.50296C1.91877 9.46432 1.88768 9.43179 1.81643 9.35609C1.66137 9.20304 1.53127 9.05983 1.40957 8.90961L1.37149 8.86675C1.33975 8.83415 1.31341 8.79677 1.29338 8.75603C1.24494 8.58815 1.24512 8.40994 1.29393 8.24214C1.31281 8.20304 1.33802 8.16725 1.36858 8.13626L1.4115 8.08805C1.5312 7.93881 1.65996 7.79708 1.79707 7.66365C1.88768 7.56826 1.91877 7.53573 1.95741 7.49709C2.0557 7.3988 2.0996 7.35434 2.15442 7.29664L4.09816 5.35319L4.28705 5.16431C4.32465 5.12671 4.34078 5.11064 4.36121 5.09051L4.4028 5.05312L4.40281 5.05312L4.40285 5.05308C4.43308 5.02598 4.44985 5.01094 4.46649 4.9943L6.63904 2.81861L6.95983 2.49782C7.02758 2.43007 7.08468 2.3744 7.21012 2.25325C7.23444 2.23165 7.25559 2.20985 7.30283 2.1604L7.35335 2.10744C7.55283 1.90772 7.78163 1.74022 8.03195 1.61059C8.27993 1.4873 8.55408 1.39708 8.83687 1.34733C9.13839 1.29908 9.45262 1.27225 9.76754 1.26867C9.90553 1.2634 10.0049 1.26241 10.2326 1.26241C10.3957 1.25978 10.5194 1.25926 10.7961 1.25926H17.1208ZM11.1567 11.8325C11.1058 11.8825 11.0449 11.9233 10.9764 11.9516C10.7643 12.0391 10.5204 11.9902 10.3585 11.8276C10.1384 11.6065 10.1384 11.2491 10.3585 11.028C10.3906 10.9958 10.4259 10.968 10.4635 10.9449L12.9085 8.4973L10.3585 5.95002L10.3662 5.94231C10.3162 5.89135 10.2755 5.8305 10.2472 5.76194C10.1596 5.54989 10.2085 5.30596 10.3711 5.14409C10.5922 4.92396 10.9496 4.92396 11.1707 5.14409C11.2029 5.17613 11.2307 5.21139 11.2538 5.24898L13.7068 7.69814L16.183 5.21935C16.2013 5.19294 16.2222 5.16774 16.2456 5.14409C16.4068 4.98213 16.6498 4.93337 16.861 5.02059C17.0723 5.10781 17.2101 5.3138 17.2101 5.54233C17.2101 5.69467 17.1488 5.83699 17.0454 5.94079L17.0515 5.94687L14.5055 8.49556L16.9903 10.9763C17.0127 10.9927 17.0343 11.011 17.0546 11.0311C17.2166 11.1924 17.2654 11.4354 17.1781 11.6466C17.0909 11.8578 16.8849 11.9956 16.6564 11.9956C16.5041 11.9956 16.3617 11.9344 16.2579 11.831L16.2519 11.8371L13.707 9.29494L11.1644 11.8402L11.1567 11.8325Z" fill="black"/>
</svg>
