<svg width="24" height="24" viewBox="0 0 24 24" fill="none" xmlns="http://www.w3.org/2000/svg">
<path d="M2 12C2 6.47596 6.47596 2 12 2C17.524 2 22 6.47596 22 12C22 17.524 17.524 22 12 22C6.47596 22 2 17.524 2 12Z" fill="white"/>
<path d="M12 2C6.47596 2 2 6.47596 2 12C2 17.524 6.47596 22 12 22C17.524 22 22 17.524 22 12C22 6.47596 17.524 2 12 2ZM17.1202 9.23558L10.6923 15.6923H10.6875C10.6058 15.774 10.3846 15.9567 10.1298 15.9567C9.94712 15.9567 9.74038 15.8558 9.56731 15.6827L6.875 12.9904C6.79808 12.9135 6.79808 12.7933 6.875 12.7163L7.73077 11.8606C7.76923 11.8221 7.81731 11.8029 7.86538 11.8029C7.91346 11.8029 7.96154 11.8221 8 11.8606L9.99267 13.8533C10.071 13.9316 10.198 13.9313 10.276 13.8527L16 8.08654C16.0385 8.04808 16.0865 8.02885 16.1346 8.02885C16.1875 8.02885 16.2356 8.04808 16.2692 8.08654L17.1106 8.95673C17.1971 9.03846 17.1971 9.15865 17.1202 9.23558Z" fill="#009639"/>
</svg>
