<svg width="24" height="24" viewBox="0 0 24 24" fill="none" xmlns="http://www.w3.org/2000/svg">
<path d="M4.46248 0.496874C4.18591 0.632812 3.96091 0.867187 3.83435 1.15312C3.74998 1.34531 3.74998 1.68281 3.75935 11.3062L3.77341 21.2672L3.91404 21.4969C3.99373 21.6234 4.15779 21.8016 4.27966 21.8906L4.49998 22.0547V22.7437C4.49998 23.3766 4.50935 23.4469 4.59373 23.5312C4.68279 23.6203 4.74841 23.625 6.74998 23.625C8.75154 23.625 8.81716 23.6203 8.90623 23.5312C8.9906 23.4469 8.99998 23.3766 8.99998 22.7812V22.125H12H15V22.7812C15 23.3766 15.0093 23.4469 15.0937 23.5312C15.1828 23.6203 15.2484 23.625 17.25 23.625C19.2515 23.625 19.3172 23.6203 19.4062 23.5312C19.4906 23.4469 19.5 23.3766 19.5 22.7437V22.0547L19.7203 21.8906C19.8422 21.8016 20.0062 21.6234 20.0859 21.4969L20.2265 21.2672L20.2406 11.3062C20.25 1.68281 20.25 1.34531 20.1656 1.15312C20.039 0.867187 19.814 0.632812 19.5375 0.496874L19.2937 0.374999H12H4.70623L4.46248 0.496874ZM19.1859 1.23281C19.2562 1.275 19.35 1.36875 19.3922 1.43906C19.4718 1.56094 19.4765 1.99687 19.4906 9.22031L19.5 16.875H12H4.49998V9.31406C4.49998 4.45781 4.51873 1.69687 4.54685 1.58906C4.6031 1.39687 4.75779 1.23281 4.94998 1.17187C5.02498 1.14844 8.22185 1.13437 12.0703 1.13906C18.6609 1.14844 19.064 1.15312 19.1859 1.23281ZM19.4906 19.2797C19.4765 21.0937 19.4765 21.075 19.1859 21.2672C19.064 21.3469 18.6656 21.3516 12 21.3516C5.33435 21.3516 4.93591 21.3469 4.81404 21.2672C4.52341 21.075 4.52341 21.0937 4.50935 19.2797L4.49529 17.625H12H19.5047L19.4906 19.2797ZM8.24998 22.5V22.875H6.74998H5.24998V22.5V22.125H6.74998H8.24998V22.5ZM18.75 22.5V22.875H17.25H15.75V22.5V22.125H17.25H18.75V22.5Z" fill="#009639"/>
<path d="M5.34375 1.96875C5.25 2.0625 5.25 2.12344 5.25 6.1875C5.25 10.2516 5.25 10.3125 5.34375 10.4062C5.4375 10.5 5.49844 10.5 12 10.5C18.5016 10.5 18.5625 10.5 18.6563 10.4062C18.75 10.3125 18.75 10.2516 18.75 6.1875C18.75 2.12344 18.75 2.0625 18.6563 1.96875C18.5625 1.875 18.5016 1.875 12 1.875C5.49844 1.875 5.4375 1.875 5.34375 1.96875ZM18 6.1875V9.75H12H6V6.1875V2.625H12H18V6.1875Z" fill="#009639"/>
<path d="M11.7188 3.46875C11.6297 3.55781 11.625 3.62344 11.625 4.39687V5.23594L11.25 5.31562C11.0297 5.3625 10.6969 5.48437 10.4438 5.61094C9.37969 6.14531 8.625 7.32656 8.625 8.47031C8.625 8.8875 8.70469 9 9 9C9.24844 9 9.36094 8.88281 9.39375 8.59219C9.48281 7.86094 9.59063 7.55625 9.91406 7.09687C10.2281 6.65625 10.8422 6.23437 11.3203 6.12187C11.4 6.10312 11.4984 6.07969 11.5453 6.06562C11.6203 6.04219 11.625 6.12187 11.625 7.2375C11.625 8.37656 11.6297 8.44219 11.7188 8.53125C11.7797 8.59219 11.8734 8.625 12 8.625C12.1266 8.625 12.2203 8.59219 12.2813 8.53125C12.3703 8.44219 12.375 8.37656 12.375 7.2375C12.375 6.12187 12.3797 6.04219 12.4594 6.06562C12.5016 6.07969 12.6047 6.10312 12.6797 6.12187C13.1578 6.23437 13.7719 6.65625 14.0859 7.09687C14.4094 7.55625 14.5172 7.86094 14.6063 8.59219C14.6391 8.88281 14.7516 9 15 9C15.2953 9 15.375 8.8875 15.375 8.47031C15.375 7.32656 14.6203 6.14531 13.5563 5.61094C13.3031 5.48437 12.9703 5.3625 12.75 5.31562L12.375 5.23594V4.39687C12.375 3.62344 12.3703 3.55781 12.2813 3.46875C12.2203 3.40781 12.1266 3.375 12 3.375C11.8734 3.375 11.7797 3.40781 11.7188 3.46875Z" fill="#009639"/>
<path d="M7.96875 12.0937C7.87969 12.1828 7.875 12.2484 7.875 13.5C7.875 14.7516 7.87969 14.8172 7.96875 14.9062C8.0625 15 8.12344 15 12 15C15.8766 15 15.9375 15 16.0313 14.9062C16.1203 14.8172 16.125 14.7516 16.125 13.5C16.125 12.2484 16.1203 12.1828 16.0313 12.0937C15.9375 12 15.8766 12 12 12C8.12344 12 8.0625 12 7.96875 12.0937ZM15.375 13.5V14.25H12H8.625V13.5V12.75H12H15.375V13.5Z" fill="#009639"/>
<path d="M5.34375 18.4687C5.25469 18.5578 5.25 18.6234 5.25 19.5C5.25 20.3766 5.25469 20.4422 5.34375 20.5312C5.43281 20.6203 5.49844 20.625 6.375 20.625C7.25156 20.625 7.31719 20.6203 7.40625 20.5312C7.49531 20.4422 7.5 20.3766 7.5 19.5C7.5 18.6234 7.49531 18.5578 7.40625 18.4687C7.31719 18.3797 7.25156 18.375 6.375 18.375C5.49844 18.375 5.43281 18.3797 5.34375 18.4687ZM6.75 19.5V19.875H6.375H6V19.5V19.125H6.375H6.75V19.5Z" fill="#009639"/>
<path d="M8.34375 18.4687C8.25469 18.5578 8.25 18.6234 8.25 19.5C8.25 20.3766 8.25469 20.4422 8.34375 20.5312C8.43281 20.6203 8.49844 20.625 9.375 20.625C10.2516 20.625 10.3172 20.6203 10.4063 20.5312C10.4953 20.4422 10.5 20.3766 10.5 19.5C10.5 18.6234 10.4953 18.5578 10.4063 18.4687C10.3172 18.3797 10.2516 18.375 9.375 18.375C8.49844 18.375 8.43281 18.3797 8.34375 18.4687ZM9.75 19.5V19.875H9.375H9V19.5V19.125H9.375H9.75V19.5Z" fill="#009639"/>
</svg>
