<svg width="24" height="24" viewBox="0 0 24 24" fill="none" xmlns="http://www.w3.org/2000/svg">
<path d="M20.1929 8.71298C20.1362 8.57594 20.04 8.45881 19.9167 8.3764C19.7933 8.29399 19.6483 8.25 19.5 8.25H4.5C4.35167 8.25 4.20666 8.29399 4.08332 8.3764C3.95998 8.45881 3.86385 8.57595 3.80709 8.713C3.75032 8.85004 3.73547 9.00084 3.76441 9.14633C3.79336 9.29182 3.86479 9.42546 3.96968 9.53034L11.4697 17.0303C11.5393 17.1 11.622 17.1552 11.713 17.1929C11.804 17.2306 11.9015 17.25 12 17.25C12.0985 17.25 12.196 17.2306 12.287 17.1929C12.378 17.1552 12.4607 17.1 12.5303 17.0303L20.0303 9.53034C20.1352 9.42545 20.2067 9.29181 20.2356 9.14632C20.2645 9.00084 20.2497 8.85003 20.1929 8.71298Z" fill="#1C2C40"/>
</svg>
