<svg width="24" height="24" viewBox="0 0 24 24" fill="none" xmlns="http://www.w3.org/2000/svg">
<path d="M12 3.34615C14.3125 3.34615 16.4856 4.24519 18.1202 5.87981C19.7548 7.51442 20.6538 9.6875 20.6538 12C20.6538 14.3125 19.7548 16.4856 18.1202 18.1202C16.4856 19.7548 14.3125 20.6538 12 20.6538C9.6875 20.6538 7.51442 19.7548 5.87981 18.1202C4.24519 16.4856 3.34615 14.3125 3.34615 12C3.34615 9.6875 4.24519 7.51442 5.87981 5.87981C7.51442 4.24519 9.6875 3.34615 12 3.34615ZM12 2C6.47596 2 2 6.47596 2 12C2 17.524 6.47596 22 12 22C17.524 22 22 17.524 22 12C22 6.47596 17.524 2 12 2Z" fill="#C0CCDA"/>
</svg>
