<svg width="24" height="24" viewBox="0 0 24 24" fill="none" xmlns="http://www.w3.org/2000/svg">
<path d="M20.2499 11.25H3.74989C3.55098 11.25 3.36022 11.329 3.21956 11.4697C3.07891 11.6103 2.99989 11.8011 2.99989 12C2.99989 12.1989 3.07891 12.3897 3.21956 12.5303C3.36022 12.671 3.55098 12.75 3.74989 12.75H20.2499C20.4488 12.75 20.6396 12.671 20.7802 12.5303C20.9209 12.3897 20.9999 12.1989 20.9999 12C20.9999 11.8011 20.9209 11.6103 20.7802 11.4697C20.6396 11.329 20.4488 11.25 20.2499 11.25Z" fill="#1C2C40"/>
<path d="M3.74989 6.75H20.2499C20.4488 6.75 20.6396 6.67098 20.7802 6.53033C20.9209 6.38968 20.9999 6.19891 20.9999 6C20.9999 5.80109 20.9209 5.61032 20.7802 5.46967C20.6396 5.32902 20.4488 5.25 20.2499 5.25H3.74989C3.55098 5.25 3.36022 5.32902 3.21956 5.46967C3.07891 5.61032 2.99989 5.80109 2.99989 6C2.99989 6.19891 3.07891 6.38968 3.21956 6.53033C3.36022 6.67098 3.55098 6.75 3.74989 6.75V6.75Z" fill="#1C2C40"/>
<path d="M20.2499 17.25H3.74989C3.55098 17.25 3.36022 17.329 3.21956 17.4697C3.07891 17.6103 2.99989 17.8011 2.99989 18C2.99989 18.1989 3.07891 18.3897 3.21956 18.5303C3.36022 18.671 3.55098 18.75 3.74989 18.75H20.2499C20.4488 18.75 20.6396 18.671 20.7802 18.5303C20.9209 18.3897 20.9999 18.1989 20.9999 18C20.9999 17.8011 20.9209 17.6103 20.7802 17.4697C20.6396 17.329 20.4488 17.25 20.2499 17.25Z" fill="#1C2C40"/>
</svg>
