<svg width="24" height="24" viewBox="0 0 24 24" fill="none" xmlns="http://www.w3.org/2000/svg">
<path d="M12 18.8C15.7555 18.8 18.8 15.7555 18.8 12C18.8 8.24442 15.7555 5.19995 12 5.19995C8.24442 5.19995 5.19995 8.24442 5.19995 12C5.19995 15.7555 8.24442 18.8 12 18.8Z" fill="#FF8800"/>
<path d="M12 3.6C12.2121 3.6 12.4156 3.51571 12.5656 3.36568C12.7157 3.21565 12.7999 3.01217 12.8 2.8V0.8C12.8 0.587827 12.7157 0.384344 12.5656 0.234315C12.4156 0.0842854 12.2121 0 12 0C11.7878 0 11.5843 0.0842854 11.4343 0.234315C11.2842 0.384344 11.2 0.587827 11.2 0.8V2.8C11.2 3.01217 11.2842 3.21565 11.4343 3.36568C11.5843 3.51571 11.7878 3.6 12 3.6Z" fill="#FF8800"/>
<path d="M4.9289 6.06025C5.00312 6.13482 5.09133 6.19403 5.18846 6.23447C5.2856 6.2749 5.38976 6.29578 5.49497 6.29591C5.60019 6.29603 5.70439 6.2754 5.80163 6.2352C5.89886 6.19499 5.9872 6.136 6.0616 6.0616C6.136 5.9872 6.19499 5.89886 6.2352 5.80163C6.2754 5.70439 6.29603 5.60019 6.29591 5.49497C6.29578 5.38976 6.2749 5.2856 6.23447 5.18846C6.19403 5.09133 6.13482 5.00312 6.06025 4.9289L4.64604 3.51469C4.57177 3.44033 4.48358 3.38133 4.3865 3.34107C4.28942 3.3008 4.18536 3.28006 4.08026 3.28003C3.97517 3.28 3.87109 3.30067 3.77399 3.34088C3.67688 3.38108 3.58865 3.44002 3.51434 3.51434C3.44002 3.58865 3.38108 3.67688 3.34088 3.77399C3.30067 3.87109 3.28 3.97517 3.28003 4.08026C3.28006 4.18536 3.3008 4.28942 3.34107 4.3865C3.38133 4.48358 3.44033 4.57177 3.51469 4.64604L4.9289 6.06025Z" fill="#FF8800"/>
<path d="M3.6 12C3.6 11.7878 3.51571 11.5843 3.36568 11.4343C3.21565 11.2842 3.01217 11.2 2.8 11.2H0.8C0.587827 11.2 0.384344 11.2842 0.234315 11.4343C0.0842854 11.5843 0 11.7878 0 12C0 12.2121 0.0842854 12.4156 0.234315 12.5656C0.384344 12.7157 0.587827 12.8 0.8 12.8H2.8C3.01217 12.7999 3.21565 12.7157 3.36568 12.5656C3.51571 12.4156 3.6 12.2121 3.6 12V12Z" fill="#FF8800"/>
<path d="M4.9289 17.9398L3.51469 19.354C3.44033 19.4282 3.38133 19.5164 3.34107 19.6135C3.3008 19.7106 3.28006 19.8146 3.28003 19.9197C3.28 20.0248 3.30067 20.1289 3.34088 20.226C3.38108 20.3231 3.44002 20.4114 3.51434 20.4857C3.58865 20.56 3.67688 20.6189 3.77399 20.6591C3.87109 20.6993 3.97517 20.72 4.08026 20.72C4.18536 20.7199 4.28942 20.6992 4.3865 20.6589C4.48358 20.6187 4.57177 20.5597 4.64604 20.4853L6.06025 19.0711C6.13482 18.9969 6.19403 18.9087 6.23447 18.8115C6.2749 18.7144 6.29578 18.6103 6.29591 18.505C6.29603 18.3998 6.2754 18.2956 6.2352 18.1984C6.19499 18.1012 6.136 18.0128 6.0616 17.9384C5.9872 17.864 5.89886 17.805 5.80163 17.7648C5.70439 17.7246 5.60019 17.704 5.49497 17.7041C5.38976 17.7042 5.2856 17.7251 5.18846 17.7655C5.09133 17.806 5.00312 17.8652 4.9289 17.9398V17.9398Z" fill="#FF8800"/>
<path d="M12 20.3999C11.7878 20.3999 11.5843 20.4842 11.4343 20.6342C11.2842 20.7842 11.2 20.9877 11.2 21.1999V23.1999C11.2 23.4121 11.2842 23.6156 11.4343 23.7656C11.5843 23.9156 11.7878 23.9999 12 23.9999C12.2121 23.9999 12.4156 23.9156 12.5656 23.7656C12.7157 23.6156 12.8 23.4121 12.8 23.1999V21.1999C12.7999 20.9877 12.7157 20.7842 12.5656 20.6342C12.4156 20.4842 12.2121 20.3999 12 20.3999V20.3999Z" fill="#FF8800"/>
<path d="M19.071 17.9398C18.9968 17.8652 18.9086 17.806 18.8114 17.7655C18.7143 17.7251 18.6101 17.7042 18.5049 17.7041C18.3997 17.704 18.2955 17.7246 18.1983 17.7648C18.101 17.805 18.0127 17.864 17.9383 17.9384C17.8639 18.0128 17.8049 18.1012 17.7647 18.1984C17.7245 18.2956 17.7039 18.3998 17.704 18.505C17.7041 18.6103 17.725 18.7144 17.7654 18.8115C17.8059 18.9087 17.8651 18.9969 17.9396 19.0711L19.3539 20.4853C19.4281 20.5597 19.5163 20.6187 19.6134 20.6589C19.7105 20.6992 19.8145 20.7199 19.9196 20.72C20.0247 20.72 20.1288 20.6993 20.2259 20.6591C20.323 20.6189 20.4112 20.56 20.4856 20.4857C20.5599 20.4114 20.6188 20.3231 20.659 20.226C20.6992 20.1289 20.7199 20.0248 20.7199 19.9197C20.7198 19.8146 20.6991 19.7106 20.6588 19.6135C20.6186 19.5164 20.5596 19.4282 20.4852 19.354L19.071 17.9398Z" fill="#FF8800"/>
<path d="M23.1999 11.2H21.1999C20.9877 11.2 20.7842 11.2842 20.6342 11.4343C20.4842 11.5843 20.3999 11.7878 20.3999 12C20.3999 12.2121 20.4842 12.4156 20.6342 12.5656C20.7842 12.7157 20.9877 12.8 21.1999 12.8H23.1999C23.4121 12.8 23.6156 12.7157 23.7656 12.5656C23.9156 12.4156 23.9999 12.2121 23.9999 12C23.9999 11.7878 23.9156 11.5843 23.7656 11.4343C23.6156 11.2842 23.4121 11.2 23.1999 11.2Z" fill="#FF8800"/>
<path d="M18.5053 6.29458C18.6104 6.29471 18.7145 6.27408 18.8116 6.23386C18.9086 6.19365 18.9968 6.13465 19.071 6.06025L20.4852 4.64604C20.5596 4.57177 20.6186 4.48358 20.6588 4.3865C20.6991 4.28942 20.7198 4.18536 20.7199 4.08026C20.7199 3.97517 20.6992 3.87109 20.659 3.77399C20.6188 3.67688 20.5599 3.58865 20.4856 3.51434C20.4113 3.44002 20.323 3.38108 20.2259 3.34088C20.1288 3.30067 20.0247 3.28 19.9196 3.28003C19.8145 3.28006 19.7105 3.3008 19.6134 3.34107C19.5163 3.38133 19.4281 3.44033 19.3539 3.51469L17.9397 4.9289C17.8278 5.04078 17.7516 5.18333 17.7207 5.33851C17.6898 5.4937 17.7057 5.65455 17.7662 5.80074C17.8268 5.94692 17.9293 6.07186 18.0609 6.15977C18.1924 6.24767 18.3471 6.29458 18.5053 6.29458H18.5053Z" fill="#FF8800"/>
</svg>
