<svg width="19" height="17" viewBox="0 0 19 17" fill="none" xmlns="http://www.w3.org/2000/svg">
<path d="M18.2553 10.5308H14.0316V14.5251C14.0316 14.6056 14.0316 14.6794 14.0316 14.7565C14.0316 14.8236 14.0316 14.8873 14.0289 14.9544C14.0271 15.0982 14.0146 15.2417 13.9917 15.3837C13.9667 15.5247 13.9216 15.6614 13.8575 15.7895C13.792 15.9174 13.7064 16.0341 13.604 16.1349C13.5011 16.2358 13.3836 16.3206 13.2555 16.3865C13.1258 16.4496 12.988 16.4948 12.846 16.5206C12.7037 16.5429 12.5599 16.5553 12.4158 16.5575C12.3487 16.5575 12.2836 16.5609 12.2179 16.5609H6.78446C6.71739 16.5609 6.65266 16.5575 6.58659 16.5575C6.44248 16.5553 6.2987 16.5429 6.1563 16.5206C6.01444 16.4947 5.87678 16.4496 5.74715 16.3865C5.61904 16.3206 5.50158 16.2358 5.39869 16.1349C5.29621 16.0341 5.21061 15.9175 5.14515 15.7895C5.08113 15.6614 5.03595 15.5247 5.01099 15.3837C4.98792 15.2417 4.97537 15.0982 4.97343 14.9544C4.97343 14.8873 4.97075 14.8236 4.97075 14.7565C4.97075 14.6794 4.97075 14.6056 4.97075 14.5251V10.5308H0.680286C0.24631 10.5308 -0.310414 9.5951 0.21076 9.07527C0.653791 8.63593 7.61687 1.69365 9.07407 0.248178C9.18115 0.116585 9.3324 0.0283855 9.49967 0H9.51107C9.65577 0.00784755 9.79013 0.0774702 9.87998 0.191164C11.3372 1.63663 18.3241 8.63593 18.7674 9.07527C19.289 9.5951 18.8523 10.5308 18.2553 10.5308Z" fill="black"/>
</svg>
