<svg width="32" height="32" viewBox="0 0 32 32" fill="none" xmlns="http://www.w3.org/2000/svg">
<circle cx="16" cy="16" r="16" fill="#C0CCDA"/>
<path d="M18 7V11C18 11.2652 18.1054 11.5196 18.2929 11.7071C18.4804 11.8946 18.7348 12 19 12H23" stroke="#5A6679" stroke-linecap="round" stroke-linejoin="round"/>
<path d="M21 25H11C10.4696 25 9.96086 24.7893 9.58579 24.4142C9.21071 24.0391 9 23.5304 9 23V9C9 8.46957 9.21071 7.96086 9.58579 7.58579C9.96086 7.21071 10.4696 7 11 7H18L23 12V23C23 23.5304 22.7893 24.0391 22.4142 24.4142C22.0391 24.7893 21.5304 25 21 25Z" stroke="#5A6679" stroke-linecap="round" stroke-linejoin="round"/>
<path d="M13 21V16" stroke="#5A6679" stroke-linecap="round" stroke-linejoin="round"/>
<path d="M16 21V20" stroke="#5A6679" stroke-linecap="round" stroke-linejoin="round"/>
<path d="M19 21V18" stroke="#5A6679" stroke-linecap="round" stroke-linejoin="round"/>
</svg>
