<svg width="24" height="24" viewBox="0 0 24 24" fill="none" xmlns="http://www.w3.org/2000/svg">
<path d="M21.0288 14.0901C20.9998 13.9958 20.9525 13.9082 20.8896 13.8323C20.8267 13.7564 20.7494 13.6936 20.6622 13.6475C20.575 13.6014 20.4796 13.573 20.3814 13.5639C20.2832 13.5547 20.1842 13.565 20.09 13.5942C18.7478 13.9631 17.3317 13.9698 15.986 13.6136C14.6404 13.2573 13.4131 12.5509 12.4292 11.5661C11.4453 10.5814 10.7399 9.35354 10.3848 8.00756C10.0297 6.66158 10.0376 5.24554 10.4077 3.90359C10.4466 3.77384 10.4496 3.63598 10.4165 3.50463C10.3833 3.37329 10.3152 3.25338 10.2194 3.15761C10.1236 3.06185 10.0037 2.99381 9.87234 2.96072C9.74098 2.92763 9.60312 2.93072 9.47338 2.96966C7.89679 3.41107 6.46326 4.2576 5.3154 5.42504C4.16755 6.59248 3.34539 8.04013 2.93072 9.62397C2.51606 11.2078 2.52333 12.8726 2.95183 14.4528C3.38033 16.0329 4.21511 17.4733 5.37312 18.6307C6.53113 19.788 7.97201 20.622 9.5524 21.0496C11.1328 21.4772 12.7976 21.4836 14.3812 21.068C15.9648 20.6524 17.412 19.8295 18.5788 18.681C19.7456 17.5325 20.5913 16.0984 21.0318 14.5216C21.0731 14.3806 21.0721 14.2305 21.0288 14.0901V14.0901Z" fill="#B0D8FD"/>
</svg>
