<svg width="16" height="14" viewBox="0 0 16 14" fill="none" xmlns="http://www.w3.org/2000/svg">
<path d="M0 6C0 2.68629 2.68629 0 6 0H10C13.3137 0 16 2.68629 16 6V8C16 11.3137 13.3137 14 10 14H6C2.68629 14 0 11.3137 0 8V6Z" fill="#D88C09"/>
<path fill-rule="evenodd" clip-rule="evenodd" d="M5.33325 6.99984C5.33325 6.81574 5.48249 6.6665 5.66659 6.6665H10.3333C10.5173 6.6665 10.6666 6.81574 10.6666 6.99984C10.6666 7.18393 10.5173 7.33317 10.3333 7.33317H5.66659C5.48249 7.33317 5.33325 7.18393 5.33325 6.99984Z" fill="white"/>
<path fill-rule="evenodd" clip-rule="evenodd" d="M10.569 6.76413C10.6992 6.89431 10.6992 7.10536 10.569 7.23554L8.56904 9.23554C8.43886 9.36571 8.22781 9.36571 8.09763 9.23554C7.96746 9.10536 7.96746 8.89431 8.09763 8.76414L10.0976 6.76413C10.2278 6.63396 10.4389 6.63396 10.569 6.76413Z" fill="white"/>
<path fill-rule="evenodd" clip-rule="evenodd" d="M8.09763 4.76413C8.22781 4.63396 8.43886 4.63396 8.56904 4.76413L10.569 6.76414C10.6992 6.89431 10.6992 7.10537 10.569 7.23554C10.4389 7.36571 10.2278 7.36571 10.0976 7.23554L8.09763 5.23554C7.96746 5.10536 7.96746 4.89431 8.09763 4.76413Z" fill="white"/>
</svg>
