<svg width="24" height="24" viewBox="0 0 24 24" fill="none" xmlns="http://www.w3.org/2000/svg">
<path d="M15.0005 20.25C14.988 20.25 14.9756 20.2497 14.963 20.2491C14.8176 20.2418 14.6774 20.1924 14.5595 20.1068C14.4417 20.0212 14.3514 19.9031 14.2995 19.767L8.93939 5.69667L5.93317 12.3103C5.87356 12.4414 5.77748 12.5526 5.65641 12.6306C5.53533 12.7085 5.39437 12.75 5.25037 12.75H2.25037C2.05145 12.75 1.86069 12.671 1.72004 12.5303C1.57938 12.3897 1.50037 12.1989 1.50037 12C1.50037 11.8011 1.57938 11.6103 1.72004 11.4697C1.86069 11.329 2.05145 11.25 2.25037 11.25H4.76743L8.31757 3.43966C8.37881 3.30492 8.47854 3.19131 8.60422 3.11314C8.7299 3.03497 8.87589 2.99573 9.02383 3.00037C9.17176 3.005 9.31501 3.0533 9.43555 3.13919C9.55609 3.22507 9.64852 3.3447 9.7012 3.48301L15.0933 17.6371L18.0796 11.6646C18.1418 11.54 18.2376 11.4352 18.3561 11.362C18.4746 11.2888 18.6111 11.25 18.7504 11.25H21.7504C21.9493 11.25 22.14 11.329 22.2807 11.4697C22.4213 11.6103 22.5004 11.8011 22.5004 12C22.5004 12.1989 22.4213 12.3897 22.2807 12.5303C22.14 12.671 21.9493 12.75 21.7504 12.75H19.2139L15.6712 19.8354C15.6089 19.96 15.5132 20.0647 15.3947 20.1379C15.2763 20.2112 15.1398 20.25 15.0005 20.25Z" fill="#1C2C40"/>
</svg>
