<svg width="24" height="24" viewBox="0 0 24 24" fill="none" xmlns="http://www.w3.org/2000/svg">
<path d="M12 2.25C10.0716 2.25 8.18657 2.82183 6.58319 3.89317C4.97982 4.96451 3.73013 6.48726 2.99218 8.26884C2.25422 10.0504 2.06114 12.0108 2.43735 13.9021C2.81355 15.7934 3.74215 17.5307 5.10571 18.8943C6.46928 20.2579 8.20656 21.1865 10.0979 21.5627C11.9892 21.9389 13.9496 21.7458 15.7312 21.0078C17.5127 20.2699 19.0355 19.0202 20.1068 17.4168C21.1782 15.8134 21.75 13.9284 21.75 12C21.7471 9.41504 20.7189 6.93678 18.8911 5.10894C17.0632 3.28109 14.585 2.25292 12 2.25ZM11.2493 5.25027C11.2493 5.05136 11.3283 4.8606 11.4689 4.71994C11.6096 4.57929 11.8004 4.50027 11.9993 4.50027C12.1982 4.50027 12.3889 4.57929 12.5296 4.71994C12.6703 4.8606 12.7493 5.05136 12.7493 5.25027V10.8753C12.7493 11.0742 12.6703 11.265 12.5296 11.4056C12.3889 11.5463 12.1982 11.6253 11.9993 11.6253C11.8004 11.6253 11.6096 11.5463 11.4689 11.4056C11.3283 11.265 11.2493 11.0742 11.2493 10.8753V5.25027ZM12 19.5C10.3913 19.5003 8.82515 18.9833 7.53284 18.0253C6.24053 17.0672 5.29058 15.719 4.8233 14.1797C4.35603 12.6403 4.39619 10.9915 4.93786 9.47677C5.47954 7.96201 6.494 6.66162 7.83143 5.76764C7.91321 5.71254 8.00506 5.67411 8.10172 5.65455C8.19837 5.635 8.29794 5.63469 8.39471 5.65366C8.49148 5.67262 8.58357 5.71049 8.66569 5.76508C8.74781 5.81968 8.81836 5.88994 8.8733 5.97183C8.92824 6.05373 8.96649 6.14565 8.98586 6.24234C9.00523 6.33904 9.00534 6.4386 8.98618 6.53534C8.96703 6.63208 8.92898 6.72408 8.87422 6.8061C8.81947 6.88812 8.74907 6.95853 8.66707 7.01331C7.59664 7.72841 6.78458 8.76883 6.35085 9.98089C5.91712 11.1929 5.88472 12.5124 6.25844 13.7442C6.63216 14.9761 7.39218 16.0552 8.42623 16.8219C9.46028 17.5887 10.7135 18.0026 12.0008 18.0024C13.2882 18.0022 14.5413 17.588 15.5751 16.8209C16.609 16.0539 17.3687 14.9747 17.7421 13.7427C18.1155 12.5107 18.0827 11.1913 17.6486 9.97933C17.2146 8.7674 16.4022 7.7272 15.3316 7.01239C15.1664 6.90162 15.0519 6.72975 15.0134 6.5346C14.9749 6.33945 15.0156 6.13699 15.1263 5.97178C15.2371 5.80656 15.409 5.69212 15.6041 5.65362C15.7993 5.61512 16.0017 5.65572 16.1669 5.76649C17.5047 6.66022 18.5196 7.96053 19.0616 9.47534C19.6037 10.9901 19.6441 12.6391 19.177 14.1787C18.7099 15.7183 17.76 17.0667 16.4676 18.025C15.1752 18.9832 13.6089 19.5003 12 19.5Z" fill="#1C2C40"/>
</svg>
