<svg width="24" height="24" viewBox="0 0 24 24" fill="none" xmlns="http://www.w3.org/2000/svg">
<path d="M20.25 20.2498V10.8316C20.25 10.7271 20.2282 10.6238 20.1859 10.5282C20.1436 10.4326 20.0818 10.347 20.0045 10.2767L12.504 3.45775C12.3659 3.33223 12.186 3.26269 11.9995 3.2627C11.8129 3.2627 11.633 3.33226 11.4949 3.45778L3.99545 10.2767C3.91814 10.347 3.85637 10.4326 3.8141 10.5282C3.77183 10.6238 3.75 10.7271 3.75 10.8316V20.2498" stroke="#1C2C40" stroke-width="2" stroke-linecap="round" stroke-linejoin="round"/>
<path d="M1.5 20.25H22.5" stroke="#1C2C40" stroke-width="2" stroke-linecap="round" stroke-linejoin="round"/>
<path d="M14.2495 20.249V14.999C14.2495 14.8001 14.1705 14.6093 14.0298 14.4687C13.8892 14.328 13.6984 14.249 13.4995 14.249H10.4995C10.3006 14.249 10.1098 14.328 9.96918 14.4687C9.82853 14.6093 9.74951 14.8001 9.74951 14.999V20.249" stroke="#1C2C40" stroke-width="2" stroke-linecap="round" stroke-linejoin="round"/>
</svg>
