<svg width="24" height="24" viewBox="0 0 24 24" fill="none" xmlns="http://www.w3.org/2000/svg">
<path d="M7.00008 16C5.75236 16 4.55574 15.5259 3.67346 14.682C2.79119 13.838 2.29553 12.6934 2.29553 11.5C2.29553 10.3065 2.79119 9.1619 3.67346 8.31799C4.55574 7.47408 5.75236 6.99997 7.00008 6.99997C7.29476 5.68715 8.15684 4.53345 9.39667 3.79269C10.6365 3.05192 12.1525 2.78475 13.6112 3.04997C15.0699 3.31519 16.3518 4.09106 17.1748 5.2069C17.9979 6.32274 18.2948 7.68715 18.0001 8.99997H19.0001C19.9283 8.99997 20.8186 9.36872 21.475 10.0251C22.1313 10.6815 22.5001 11.5717 22.5001 12.5C22.5001 13.4282 22.1313 14.3185 21.475 14.9748C20.8186 15.6312 19.9283 16 19.0001 16H7.00008Z" stroke="#B0D8FD" stroke-width="2" stroke-linecap="round" stroke-linejoin="round"/>
<path d="M5 20H19" stroke="#B0D8FD" stroke-width="2" stroke-linecap="round" stroke-linejoin="round"/>
</svg>
